<svg width="162" height="153" viewBox="0 0 162 153" fill="none" xmlns="http://www.w3.org/2000/svg">
<path d="M32.1307 4.5422L129.043 3.62659C129.579 27.998 130.111 52.3665 130.646 76.7379C114.608 91.2531 98.5726 105.768 82.5342 120.283C65.8855 107.297 49.2369 94.3081 32.5883 81.322C32.4358 55.7297 32.2832 30.1374 32.1307 4.5422Z" fill="#E6F6FD"/>
<path d="M80.548 67.2586C91.8523 67.2586 101.016 58.0913 101.016 46.783C101.016 35.4746 91.8523 26.3074 80.548 26.3074C69.2437 26.3074 60.0797 35.4746 60.0797 46.783C60.0797 58.0913 69.2437 67.2586 80.548 67.2586Z" fill="#2EB67D"/>
<path d="M4.8665 62.3005C5.01905 91.1273 5.1716 119.954 5.32414 148.781C55.4225 148.679 105.521 148.577 155.619 148.476C155.924 118.988 156.23 89.4965 156.535 60.0084C148.898 55.9331 141.262 51.8607 133.623 47.7853C133.267 57.5129 132.911 67.2406 132.555 76.9682C115.194 91.3816 97.8307 105.795 80.4702 120.208C62.8046 105.541 45.1361 90.8729 27.4705 76.2052C27.8264 65.7146 28.1823 55.2209 28.5383 44.7303C20.6477 50.586 12.7541 56.4447 4.86351 62.3005H4.8665Z" fill="#00A7E7"/>
<path d="M158.338 54.8051L135.66 41.6185V8.39311C135.66 3.7582 131.903 0 127.269 0H33.8267C29.1934 0 25.4365 3.7582 25.4365 8.39311V41.6155L2.75782 54.8051C1.04989 55.7985 0 57.6267 0 59.6016V147.452C0 150.516 2.48264 153 5.54555 153H155.551C158.613 153 161.096 150.516 161.096 147.452V59.6016C161.096 57.6267 160.046 55.7985 158.338 54.8051ZM135.66 125.989L126.686 118.73L108.62 104.116L126.686 88.6947L135.66 81.0347L152.123 66.9803V139.308L135.66 125.989ZM147.669 58.9822L135.663 69.2335V52.0014L147.669 58.9852V58.9822ZM34.4099 8.97659H126.686V76.8935L81.1044 115.804C80.7814 116.079 80.3118 116.079 79.9887 115.804L34.4069 76.8935V8.97659H34.4099ZM8.97338 66.9803L25.4365 81.0347L34.4099 88.6947L52.4763 104.116L34.4099 118.73L25.4365 125.989L8.97338 139.308V66.9803ZM25.4365 52.0014V69.2335L13.4302 58.9822L25.4365 51.9984V52.0014ZM135.66 144.026H17.4114L25.4365 137.533L34.4099 130.274L59.4187 110.044L74.168 122.632C76.0165 124.212 78.2838 124.999 80.5511 124.999C82.8183 124.999 85.0856 124.209 86.9341 122.632L101.683 110.044L126.692 130.274L135.666 137.533L143.691 144.026H135.666H135.66Z" fill="#1A2B4C"/>
<path d="M80.548 69.4009C93.036 69.4009 103.158 59.2754 103.158 46.7829C103.158 34.2905 93.036 24.1649 80.548 24.1649C68.0601 24.1649 57.9381 34.2905 57.9381 46.7829C57.9381 59.2754 68.0601 69.4009 80.548 69.4009ZM66.6752 32.9051C70.3812 29.1978 75.3076 27.1571 80.548 27.1571C85.7885 27.1571 90.7149 29.1978 94.4209 32.9051C98.1269 36.6125 100.167 41.5406 100.167 46.7829C100.167 52.0253 98.1269 56.9534 94.4209 60.6607C90.7149 64.3681 85.7885 66.4087 80.548 66.4087C75.3076 66.4087 70.3812 64.3681 66.6752 60.6607C62.9692 56.9534 60.9292 52.0253 60.9292 46.7829C60.9292 41.5406 62.9692 36.6125 66.6752 32.9051Z" fill="#1A2B4C"/>
<path d="M76.528 54.9636C76.8121 55.2897 77.2219 55.4752 77.6556 55.4752C77.6706 55.4752 77.6825 55.4752 77.6975 55.4752C78.1432 55.4633 78.5619 55.2508 78.8341 54.9007L90.0449 40.5053C90.5534 39.853 90.4367 38.9134 89.7846 38.4048C89.1326 37.8961 88.1934 38.0128 87.6849 38.6651L77.5868 51.6303L73.3544 46.7829C72.81 46.1605 71.8648 46.0977 71.2456 46.6393C70.6235 47.1839 70.5607 48.1294 71.1021 48.7518L76.528 54.9666V54.9636Z" fill="#1A2B4C"/>
</svg>
