<svg width="209" height="195" viewBox="0 0 209 195" fill="none" xmlns="http://www.w3.org/2000/svg">
<g opacity="0.5">
<path d="M183.843 6.84526H24.6245C12.9644 6.84526 3.51202 16.2977 3.51202 27.9578V119.345C3.51202 131.005 12.9644 140.457 24.6245 140.457H183.843C195.503 140.457 204.956 131.005 204.956 119.345V27.9578C204.956 16.2977 195.503 6.84526 183.843 6.84526Z" fill="#E8EAED"/>
<path d="M4.49284 122.709H203.536C204.259 122.709 204.846 123.297 204.846 124.019C204.846 133.591 197.075 141.361 187.504 141.361H20.5251C10.9535 141.361 3.18298 133.591 3.18298 124.019C3.18298 123.297 3.77032 122.709 4.49284 122.709Z" fill="#00A7E7"/>
<path d="M189.937 144.146H175.442C173.782 144.146 172.438 142.802 172.438 141.142C172.438 139.482 173.782 138.138 175.442 138.138H189.937C196.623 138.138 202.061 132.699 202.061 126.014V22.5215C202.061 15.8355 196.622 10.3978 189.937 10.3978H18.3125C11.6265 10.3978 6.18877 15.837 6.18877 22.5215V126.014C6.18877 132.7 11.628 138.138 18.3125 138.138H158.107C159.767 138.138 161.111 139.482 161.111 141.142C161.111 142.802 159.767 144.146 158.107 144.146H18.3125C8.3143 144.146 0.180237 136.012 0.180237 126.014V22.5215C0.180237 12.5233 8.3143 4.38922 18.3125 4.38922H189.937C199.936 4.38922 208.07 12.5233 208.07 22.5215V126.014C208.07 136.012 199.936 144.146 189.937 144.146Z" fill="#1A2B4C"/>
<path d="M204.887 126.197H3.00427C1.34441 126.197 0 124.853 0 123.193C0 121.533 1.34441 120.189 3.00427 120.189H204.887C206.546 120.189 207.891 121.533 207.891 123.193C207.891 124.853 206.546 126.197 204.887 126.197Z" fill="#1A2B4C"/>
<path d="M193.628 25.8021H148.916C147.672 25.8021 146.662 24.7927 146.662 23.5489C146.662 22.3051 147.672 21.2957 148.916 21.2957H193.628C194.872 21.2957 195.881 22.3051 195.881 23.5489C195.881 24.7927 194.872 25.8021 193.628 25.8021Z" fill="#1A2B4C"/>
<path d="M193.189 35.4308H148.477C147.233 35.4308 146.224 34.4214 146.224 33.1776C146.224 31.9339 147.233 30.9244 148.477 30.9244H193.189C194.433 30.9244 195.443 31.9339 195.443 33.1776C195.443 34.4214 194.433 35.4308 193.189 35.4308Z" fill="#1A2B4C"/>
<path d="M58.3459 103.019H13.6334C12.3896 103.019 11.3802 102.01 11.3802 100.766C11.3802 99.5224 12.3896 98.513 13.6334 98.513H58.3459C59.5897 98.513 60.5991 99.5224 60.5991 100.766C60.5991 102.01 59.5897 103.019 58.3459 103.019Z" fill="#1A2B4C"/>
<path d="M57.9058 112.65H13.1948C11.951 112.65 10.9416 111.64 10.9416 110.396C10.9416 109.153 11.951 108.143 13.1948 108.143H57.9073C59.1511 108.143 60.1605 109.153 60.1605 110.396C60.1605 111.64 59.1511 112.65 57.9073 112.65H57.9058Z" fill="#1A2B4C"/>
<path d="M71.0327 2.25319H45.1825C42.357 2.25319 40.0437 4.56497 40.0437 7.39198C40.0437 10.2175 42.3555 12.5308 45.1825 12.5308H158.936C161.762 12.5308 164.075 10.219 164.075 7.39198C164.075 4.56647 161.763 2.25319 158.936 2.25319H87.9302" fill="#FF4C00"/>
<path d="M158.936 14.784H45.1827C41.1074 14.784 37.7906 11.4688 37.7906 7.39198C37.7906 3.31519 41.1059 -1.52588e-05 45.1827 -1.52588e-05H71.0329C72.2766 -1.52588e-05 73.2861 1.00942 73.2861 2.25319C73.2861 3.49695 72.2766 4.50639 71.0329 4.50639H45.1827C43.5919 4.50639 42.297 5.80122 42.297 7.39198C42.297 8.98274 43.5919 10.2776 45.1827 10.2776H158.936C160.527 10.2776 161.822 8.98274 161.822 7.39198C161.822 5.80122 160.527 4.50639 158.936 4.50639H87.9304C86.6866 4.50639 85.6772 3.49695 85.6772 2.25319C85.6772 1.00942 86.6866 -1.52588e-05 87.9304 -1.52588e-05H158.936C163.012 -1.52588e-05 166.328 3.31519 166.328 7.39198C166.328 11.4688 163.013 14.784 158.936 14.784Z" fill="#1A2B4C"/>
<path d="M109.21 183.256C107.55 183.256 106.205 181.911 106.205 180.252V142.019C106.205 140.359 107.55 139.015 109.21 139.015C110.87 139.015 112.214 140.359 112.214 142.019V180.252C112.214 181.911 110.87 183.256 109.21 183.256Z" fill="#1A2B4C"/>
<path d="M108.914 194.678C104.109 194.678 100.198 190.768 100.198 185.963C100.198 181.157 104.109 177.247 108.914 177.247C113.719 177.247 117.629 181.157 117.629 185.963C117.629 190.768 113.719 194.678 108.914 194.678ZM108.914 183.256C107.421 183.256 106.207 184.47 106.207 185.963C106.207 187.456 107.421 188.67 108.914 188.67C110.407 188.67 111.621 187.456 111.621 185.963C111.621 184.47 110.407 183.256 108.914 183.256Z" fill="#1A2B4C"/>
<path d="M163.932 65.6478C163.932 55.7578 156.135 47.7229 146.461 47.5757C136.636 47.427 128.451 55.6376 128.451 65.6478C128.451 71.0736 130.798 75.9405 134.515 79.2542C136.912 81.3917 138.253 84.5041 138.253 87.7503V87.7818C138.253 89.2419 139.427 90.4361 140.86 90.4361H151.523C152.956 90.4361 154.13 89.2419 154.13 87.7818C154.13 84.5146 155.486 81.3872 157.895 79.2301C161.597 75.9179 163.932 71.0615 163.932 65.6478Z" fill="#FFCC4D"/>
<path d="M146.496 48.2666C146.578 48.2666 146.662 48.2666 146.747 48.2681C151.205 48.3342 155.387 50.1218 158.522 53.3003C161.66 56.4818 163.387 60.6953 163.387 65.1641C163.387 67.6397 162.864 70.0235 161.835 72.2482C160.84 74.4008 159.426 76.2905 157.635 77.8632C154.292 80.8014 152.345 85.0434 152.271 89.5363H140.708C140.643 85.0404 138.706 80.8044 135.368 77.8842C133.57 76.3115 132.15 74.4203 131.15 72.2632C130.115 70.0341 129.591 67.6457 129.591 65.1641C129.591 62.9049 130.041 60.7043 130.928 58.6268C131.787 56.6155 133.016 54.8039 134.579 53.2432C136.143 51.6825 137.956 50.4567 139.967 49.599C142.045 48.7143 144.241 48.2666 146.494 48.2666M146.496 45.0431C135.485 45.0431 126.367 54.1189 126.367 65.1641C126.367 71.2042 129.029 76.6224 133.244 80.3102C135.963 82.6895 137.484 86.155 137.484 89.7691V89.8036C137.484 91.429 138.814 92.7583 140.439 92.7583H152.533C154.158 92.7583 155.487 91.429 155.487 89.8036C155.487 86.167 157.026 82.6835 159.758 80.2831C163.956 76.5954 166.606 71.1892 166.606 65.1626C166.606 54.152 157.763 45.2068 146.792 45.0446C146.692 45.0446 146.592 45.0415 146.493 45.0415L146.496 45.0431Z" fill="#1A2B4C"/>
<path d="M150.756 97.5426C150.484 97.8836 150.164 98.1945 149.802 98.4634C148.852 99.1694 147.708 99.5434 146.488 99.5434C145.268 99.5434 144.124 99.1694 143.174 98.4634C142.814 98.1945 142.494 97.8851 142.22 97.5426H150.754M153.227 94.1343H139.749C138.72 94.1343 137.942 95.0881 138.172 96.0915C139.049 99.916 142.44 102.767 146.488 102.767C150.536 102.767 153.928 99.916 154.804 96.0915C155.034 95.0881 154.256 94.1343 153.227 94.1343Z" fill="#1A2B4C"/>
<path d="M148.765 86.5275C148.321 86.5275 147.96 86.167 147.96 85.7223V69.7411H145.017V85.7223C145.017 86.167 144.657 86.5275 144.212 86.5275C143.768 86.5275 143.407 86.167 143.407 85.7223V69.7411H141.521C139.592 69.7411 138.024 67.9461 138.024 65.7409C138.024 63.5358 139.593 61.7407 141.521 61.7407C143.448 61.7407 145.017 63.5358 145.017 65.7409V68.1293H147.96V65.7409C147.96 63.5343 149.53 61.7407 151.457 61.7407C153.384 61.7407 154.954 63.5358 154.954 65.7409C154.954 67.9461 153.386 69.7411 151.457 69.7411H149.57V85.7223C149.57 86.167 149.21 86.5275 148.765 86.5275ZM149.57 68.1278H151.457C152.497 68.1278 153.344 67.0568 153.344 65.7394C153.344 64.4221 152.498 63.351 151.457 63.351C150.416 63.351 149.57 64.4221 149.57 65.7394V68.1278ZM141.521 63.351C140.481 63.351 139.634 64.4221 139.634 65.7394C139.634 67.0568 140.48 68.1278 141.519 68.1278H143.406V65.7394C143.406 64.4221 142.56 63.351 141.519 63.351H141.521Z" fill="#1A2B4C"/>
<path d="M130.836 46.3109C129.666 46.3109 128.677 45.4066 128.592 44.2199L128.072 37.0652C127.982 35.8245 128.915 34.7444 130.155 34.6543C131.396 34.5642 132.476 35.497 132.566 36.7393L133.086 43.8939C133.176 45.1347 132.243 46.2147 131.003 46.3048C130.947 46.3094 130.891 46.3109 130.837 46.3109H130.836Z" fill="#1A2B4C"/>
<path d="M116.773 55.9019C115.603 55.9019 114.614 54.9977 114.529 53.8125C114.439 52.5717 115.371 51.4917 116.612 51.4016L123.767 50.8818C125.009 50.7932 126.088 51.7245 126.178 52.9653C126.268 54.206 125.335 55.2861 124.094 55.3762L116.94 55.896C116.884 55.9005 116.828 55.9019 116.774 55.9019H116.773Z" fill="#1A2B4C"/>
<path d="M125.293 49.0958C124.77 49.0958 124.246 48.9156 123.821 48.5475L118.395 43.8564C117.453 43.0422 117.351 41.6197 118.164 40.6779C118.978 39.7375 120.401 39.6324 121.342 40.4465L126.768 45.1377C127.71 45.9519 127.812 47.3744 126.999 48.3162C126.553 48.8314 125.925 49.0958 125.295 49.0958H125.293Z" fill="#1A2B4C"/>
</g>
</svg>
