<svg width="188" height="214" viewBox="0 0 188 214" fill="none" xmlns="http://www.w3.org/2000/svg">
<path d="M185.157 117.116C185.694 116.94 187.287 116.854 187.697 117.7L187.698 117.699C188.038 118.403 188.096 119.392 187.845 120.218L182.334 137.977C178.954 148.87 175.491 159.936 172.14 170.638C170.316 176.462 168.431 182.485 166.58 188.41C165.635 191.437 164.692 194.464 163.749 197.491C162.309 202.119 160.819 206.903 159.344 211.607C159.017 212.652 158.682 213.543 157.908 213.873C157.7 213.961 157.488 214 157.267 214C156.656 214 155.982 213.701 155.21 213.323C152.669 212.078 150.128 210.831 147.588 209.584C141.692 206.689 135.595 203.694 129.582 200.784C128.103 200.068 127.504 199.105 127.514 197.459C127.545 192.668 127.516 187.966 127.488 182.987C127.479 181.495 127.47 179.994 127.463 178.481L124.303 178.539C120.798 178.604 117.372 178.667 113.947 178.731C113.389 178.741 112.818 178.759 112.267 178.777C110.811 178.825 109.305 178.876 107.814 178.777C106.823 178.713 105.619 177.973 105.186 177.163C100.779 168.923 96.3785 160.504 92.1234 152.363L91.5784 151.319C91.1638 150.525 90.8146 149.752 91.1097 149.025C91.4112 148.285 92.2417 147.953 93.139 147.652C99.7269 145.445 106.431 143.221 112.915 141.07C114.678 140.486 116.44 139.901 118.202 139.316C123.567 137.535 128.933 135.755 134.297 133.976C140.973 131.762 147.648 129.547 154.323 127.331C156.669 126.553 159.015 125.773 161.362 124.993C169.157 122.403 177.219 119.722 185.157 117.116ZM132.023 197.383L155.84 209.055L180.442 130.136L132.023 197.383ZM168.143 140.167C155.44 153.047 143.735 164.92 132.039 176.807C131.764 177.087 131.616 177.401 131.616 177.521C131.596 181.514 131.615 185.577 131.632 189.506C131.634 189.961 131.636 190.415 131.638 190.869L168.143 140.167ZM115.143 174.382C119.029 174.512 123.168 174.487 128.242 174.306C128.307 174.304 128.666 174.251 129.438 173.472C136.279 166.564 143.215 159.52 149.922 152.708L152.421 150.17C156.587 145.94 160.75 141.708 164.913 137.477L165.132 137.255L115.143 174.382ZM96.0413 150.989L108.332 174.369L174.957 124.809L96.0413 150.989ZM0.103821 0.691528C0.215637 0.280756 1.57963 -0.084993 2.30695 0.0177002C17.6226 2.1804 32.9281 4.41688 48.2376 6.63196C66.1754 9.22701 84.1143 11.8143 102.052 14.4073C114.502 16.2076 126.952 17.994 139.396 19.8302C142.098 20.2297 142.401 20.729 141.635 23.212C137.511 36.5795 133.394 49.949 129.146 63.2775C128.847 64.213 127.628 65.2547 126.651 65.4991C123.856 66.1975 120.966 66.5126 118.114 66.9757C111.491 68.0499 104.868 69.1229 97.9593 70.2433H97.9603C99.6478 79.803 101.222 89.0435 102.951 98.255C103.306 100.151 102.878 101.262 101.328 102.4C90.3613 110.449 79.4626 118.591 68.5355 126.694C65.9361 128.622 65.3943 128.518 63.9212 125.692C58.5376 115.361 53.1852 105.013 47.8118 94.6769C36.1276 72.2005 24.4376 49.7265 12.7523 27.2501C8.64071 19.3428 4.51017 11.4442 0.462219 3.50403C0.0457913 2.68877 -0.128887 1.54179 0.103821 0.691528ZM9.19366 12.3439C28.3634 49.264 47.5334 86.1841 66.8304 123.351C77.7236 115.27 88.4347 107.325 99.3782 99.2062C69.3683 70.0167 39.5312 40.9958 9.69366 11.9747C9.52748 12.098 9.35985 12.2206 9.19366 12.3439ZM24.2249 20.1788C24.0505 20.0556 23.8313 19.9931 23.4056 20.1573C48.1222 44.1978 72.8394 68.2399 97.556 92.2814C97.7303 92.2146 97.9051 92.1479 98.0794 92.0812C96.8145 84.9348 95.5719 77.7836 94.2444 70.6495C94.1335 70.0551 93.552 69.4258 93.0218 69.049C70.1025 52.7413 47.1637 36.4588 24.2249 20.1788ZM26.4778 17.1046C36.413 24.1719 46.3473 31.2425 56.2845 38.3077C69.0315 47.3704 81.7755 56.4373 94.5472 65.464C95.3247 66.0144 96.4007 66.6515 97.2347 66.5314C104.383 65.4983 111.507 64.2988 118.76 62.6095C88.0854 47.2764 57.4113 31.9435 26.7366 16.6115C26.6505 16.7757 26.564 16.9404 26.4778 17.1046ZM13.6214 5.88196C50.8901 24.5454 88.1606 43.2102 125.728 62.0236C129.735 49.1408 133.692 36.4148 137.771 23.2999L137.772 23.299C96.2027 17.2945 55.0121 11.3447 13.8226 5.39465C13.7549 5.55678 13.688 5.71983 13.6214 5.88196Z" fill="#E8EAED"/>
</svg>
