<svg width="233" height="232" viewBox="0 0 233 232" fill="none" xmlns="http://www.w3.org/2000/svg">
<path d="M84.2419 36.0841C84.96 32.0435 86.4006 29.3873 87.5557 29.4565C88.6026 29.5214 89.5414 31.8445 89.987 34.7603C90.134 35.7164 90.2811 36.6768 90.4282 37.6329C92.7124 38.7361 94.9923 39.8435 97.2765 40.9467C95.2865 41.9028 93.3008 42.8632 91.3108 43.8193C90.3547 45.5886 89.3943 47.3537 88.4382 49.1231C86.8938 47.6522 85.345 46.177 83.8006 44.7061C81.5899 43.6029 79.3836 42.4955 77.173 41.3923C79.5307 39.6229 81.8841 37.8579 84.2419 36.0885V36.0841Z" fill="#FFCC4D"/>
<path d="M158.621 101.474C159.339 97.4329 160.78 94.7767 161.935 94.8459C162.982 94.9108 163.92 97.2339 164.366 100.15C164.513 101.106 164.66 102.066 164.807 103.022C167.091 104.125 169.371 105.233 171.656 106.336C169.665 107.292 167.68 108.253 165.69 109.209C164.734 110.978 163.773 112.743 162.817 114.512C161.273 113.042 159.724 111.566 158.18 110.096C155.969 108.992 153.763 107.885 151.552 106.782C153.91 105.012 156.263 103.247 158.621 101.478V101.474Z" fill="#FFCC4D"/>
<path d="M209.258 8.9119C209.976 4.8713 211.417 2.21506 212.572 2.28428C213.619 2.34917 214.558 4.6723 215.003 7.58811C215.151 8.54418 215.298 9.50458 215.445 10.4607C217.729 11.5638 220.009 12.6713 222.293 13.7745C220.303 14.7305 218.317 15.6909 216.327 16.647C215.371 18.4164 214.411 20.1815 213.455 21.9508C211.91 20.48 210.362 19.0047 208.817 17.5339C206.606 16.4307 204.4 15.3232 202.189 14.2201C204.547 12.4507 206.901 10.6856 209.258 8.91623V8.9119Z" fill="#FFCC4D"/>
<path d="M142.264 28.8682C143.93 24.0921 142.342 21.4359 147.585 21.4575C148.879 21.4619 149.532 24.7454 149.506 28.3793C149.497 29.5733 153.538 28.2625 153.529 29.4565C156.09 31.2432 156.35 30.763 158.907 32.5497C156.302 33.3241 151.95 38.8702 149.346 39.6489C147.836 41.6086 146.331 43.5727 144.821 45.5324C143.229 43.4386 141.637 41.349 140.045 39.2552C137.574 37.4815 135.104 35.7078 132.634 33.9341C135.844 32.2469 139.054 30.5554 142.264 28.8682Z" fill="#E6F6FD"/>
<path d="M206.896 72.3414C208.562 67.5654 206.974 64.9092 212.217 64.9308C213.511 64.9351 214.164 68.2186 214.138 71.8526C214.129 73.0466 218.17 71.7358 218.161 72.9298C220.722 74.7165 220.982 74.2363 223.539 76.023C220.934 76.7974 216.582 82.3434 213.978 83.1221C212.468 85.0819 210.963 87.0459 209.453 89.0057C207.861 86.9118 206.269 84.8223 204.677 82.7285C202.207 80.9548 199.736 79.181 197.266 77.4073C200.476 75.7201 203.686 74.0286 206.896 72.3414Z" fill="#E6F6FD"/>
<path d="M57.952 93.5178C40.8682 137.259 23.7843 180.996 6.70044 224.738C55.0059 205.889 103.311 187.036 151.617 168.187C154.913 167.966 158.846 167.114 160.896 164.211C169.207 152.444 138.889 118.021 122.459 101.915C105.721 85.5102 84.7221 64.9308 70.3247 71.4286C62.542 74.9414 59.3407 85.1684 57.952 93.5178Z" fill="#00A7E7"/>
<path d="M75.0359 42.5474L82.8013 45.6146L85.9161 53.4276C86.1627 54.0462 86.7597 54.4529 87.4259 54.4529C88.0921 54.4529 88.6892 54.0462 88.9357 53.4276L92.0506 45.6146L99.8159 42.5474C100.435 42.3008 100.846 41.7038 100.846 41.0376C100.846 40.3713 100.439 39.77 99.8159 39.5277L92.0506 36.4605L88.9357 28.6475C88.6892 28.0289 88.0921 27.6223 87.4259 27.6223C86.7597 27.6223 86.1627 28.0289 85.9161 28.6475L82.8013 36.4605L75.0359 39.5277C74.4173 39.7743 74.0106 40.3713 74.0106 41.0376C74.0106 41.7038 74.4173 42.3051 75.0359 42.5474ZM84.6486 39.2206C85.0639 39.0562 85.397 38.7274 85.5614 38.3121L87.4259 33.6356L89.2905 38.3121C89.4549 38.7274 89.788 39.0562 90.2033 39.2206L94.7976 41.0376L90.2033 42.8545C89.788 43.0189 89.4549 43.3477 89.2905 43.763L87.4259 48.4396L85.5614 43.763C85.397 43.3477 85.0639 43.0189 84.6486 42.8545L80.0542 41.0376L84.6486 39.2206Z" fill="#1A2B4C"/>
<path d="M199.853 14.9251L207.619 17.9923L210.734 25.8053C210.98 26.4239 211.577 26.8306 212.243 26.8306C212.91 26.8306 213.507 26.4239 213.753 25.8053L216.868 17.9923L224.633 14.9251C225.252 14.6785 225.659 14.0815 225.659 13.4152C225.659 12.749 225.252 12.1477 224.633 11.9054L216.868 8.83821L213.753 1.02523C213.507 0.406595 212.91 -6.10352e-05 212.243 -6.10352e-05C211.577 -6.10352e-05 210.98 0.406595 210.734 1.02523L207.619 8.83821L199.853 11.9054C199.235 12.152 198.824 12.749 198.824 13.4152C198.824 14.0815 199.23 14.6828 199.853 14.9251ZM209.462 11.5983C209.877 11.4339 210.21 11.1051 210.374 10.6898L212.239 6.01325L214.104 10.6898C214.268 11.1051 214.601 11.4339 215.016 11.5983L219.611 13.4152L215.016 15.2322C214.601 15.3966 214.268 15.7254 214.104 16.1407L212.239 20.8172L210.374 16.1407C210.21 15.7254 209.877 15.3966 209.462 15.2322L204.867 13.4152L209.462 11.5983Z" fill="#1A2B4C"/>
<path d="M166.226 101.642L163.111 93.8293C162.865 93.2106 162.268 92.8083 161.602 92.8083C160.935 92.8083 160.338 93.2149 160.092 93.8293L156.977 101.642L149.212 104.709C148.593 104.956 148.186 105.553 148.186 106.219C148.186 106.885 148.593 107.487 149.212 107.729L156.977 110.796L160.092 118.609C160.338 119.228 160.935 119.635 161.602 119.635C162.268 119.635 162.865 119.228 163.111 118.609L166.226 110.796L173.992 107.729C174.61 107.483 175.021 106.885 175.021 106.219C175.021 105.553 174.615 104.952 173.992 104.709L166.226 101.642ZM164.379 108.036C163.964 108.201 163.631 108.529 163.466 108.945L161.602 113.621L159.737 108.945C159.573 108.529 159.24 108.201 158.824 108.036L154.23 106.219L158.824 104.402C159.24 104.238 159.573 103.909 159.737 103.494L161.602 98.8173L163.466 103.494C163.631 103.909 163.964 104.238 164.379 104.402L168.973 106.219L164.379 108.036Z" fill="#1A2B4C"/>
<path d="M230.941 74.1238L218.434 69.1833L213.42 56.5986C212.927 55.3614 211.733 54.5524 210.4 54.5524C209.068 54.5524 207.874 55.3614 207.381 56.5986L202.367 69.1833L189.864 74.1238C188.623 74.6126 187.809 75.8109 187.809 77.1434C187.809 78.4758 188.623 79.6742 189.864 80.163L202.371 85.1035L207.385 97.6882C207.878 98.9254 209.072 99.7344 210.405 99.7344C211.737 99.7344 212.931 98.9254 213.424 97.6882L218.438 85.1035L230.945 80.163C232.187 79.6742 233 78.4758 233 77.1434C233 75.8109 232.187 74.6126 230.945 74.1238H230.941ZM214.744 79.579C213.909 79.9078 213.251 80.5654 212.918 81.4003L210.405 87.7121L207.891 81.4003C207.558 80.5697 206.901 79.9121 206.066 79.579L199.905 77.1434L206.066 74.7078C206.901 74.379 207.558 73.7214 207.891 72.8865L210.405 66.5747L212.918 72.8865C213.251 73.7171 213.909 74.3747 214.744 74.7078L220.904 77.1434L214.744 79.579Z" fill="#1A2B4C"/>
<path d="M124.73 36.5038L137.232 41.4442L142.246 54.0289C142.74 55.2662 143.934 56.0752 145.266 56.0752C146.599 56.0752 147.793 55.2662 148.286 54.0289L153.3 41.4442L165.802 36.5038C167.044 36.0149 167.857 34.8166 167.857 33.4841C167.857 32.1517 167.044 30.9534 165.802 30.4645L153.3 25.5241L148.286 12.9394C147.793 11.7021 146.599 10.8931 145.266 10.8931C143.934 10.8931 142.74 11.7021 142.246 12.9394L137.232 25.5241L124.73 30.4645C123.488 30.9534 122.675 32.1517 122.675 33.4841C122.675 34.8166 123.488 36.0149 124.73 36.5038ZM140.927 31.0485C141.762 30.7198 142.419 30.0622 142.753 29.2272L145.266 22.9154L147.78 29.2272C148.113 30.0579 148.77 30.7154 149.605 31.0485L155.766 33.4841L149.605 35.9198C148.77 36.2485 148.113 36.9061 147.78 37.7411L145.266 44.0529L142.753 37.7411C142.419 36.9104 141.762 36.2529 140.927 35.9198L134.767 33.4841L140.927 31.0485Z" fill="#1A2B4C"/>
<path d="M186.806 118.116L154.321 130.376C148.502 121.689 140.914 112.47 132.223 103.572L181.346 54.4485C182.614 53.181 182.614 51.1217 181.346 49.8542C180.079 48.5866 178.019 48.5866 176.752 49.8542L127.62 98.9903C119.206 90.8485 110.536 83.7104 102.312 78.1211L110.099 54.734C110.666 53.0295 109.744 51.1909 108.044 50.6242C106.344 50.0575 104.501 50.979 103.934 52.6791L96.6752 74.4871C95.2346 73.6132 93.8156 72.7913 92.4226 72.0342C78.0512 64.2082 67.7248 63.2781 61.7331 69.2698C60.7467 70.2562 59.9507 71.3637 59.3364 72.5879L59.2023 72.536L0.734727 217.989C-0.783742 221.761 0.0944607 226.057 2.97133 228.934C4.90944 230.872 7.49646 231.906 10.1311 231.906C11.4029 231.906 12.6878 231.668 13.9164 231.171L159.369 172.703L159.317 172.573C160.537 171.963 161.645 171.163 162.631 170.177C168.627 164.181 167.697 153.854 159.867 139.487C159.24 138.336 158.565 137.168 157.864 135.987L189.098 124.199C190.777 123.567 191.625 121.689 190.989 120.011C190.357 118.332 188.48 117.484 186.801 118.12L186.806 118.116ZM63.1823 97.4675C63.5933 98.2851 64.0303 99.1157 64.4888 99.9593C70.8872 111.705 81.391 125.155 94.0665 137.83C106.742 150.506 120.192 161.01 131.937 167.408C132.785 167.871 133.616 168.299 134.434 168.714L15.2921 216.613L63.1867 97.4675H63.1823ZM147.451 143.9C153.499 154.404 153.815 159.647 153.408 160.949C152.101 161.356 146.863 161.04 136.359 154.992C126.097 149.082 114.339 139.725 103.26 128.646C92.176 117.562 82.8186 105.808 76.9134 95.5467C70.8655 85.0429 70.5497 79.7996 70.9564 78.4974C72.2629 78.0908 77.5018 78.4066 88.0056 84.4545C89.4592 85.2938 90.9474 86.2066 92.4529 87.1756L88.3301 99.5613C87.7634 101.266 88.6848 103.104 90.385 103.671C90.7268 103.784 91.0728 103.84 91.4103 103.84C92.7687 103.84 94.0406 102.979 94.4905 101.616L98.0336 90.9783C104.696 95.7717 111.652 101.634 118.431 108.179L109.182 117.428C107.914 118.696 107.914 120.755 109.182 122.023C109.818 122.659 110.649 122.974 111.479 122.974C112.31 122.974 113.14 122.659 113.776 122.023L123.039 112.76C130.272 120.18 136.692 127.841 141.801 135.105L134.46 137.878C132.781 138.509 131.933 140.387 132.569 142.066C133.058 143.368 134.295 144.168 135.61 144.168C135.991 144.168 136.38 144.099 136.757 143.956L145.5 140.655C146.183 141.75 146.845 142.836 147.46 143.9H147.451Z" fill="#1A2B4C"/>
</svg>
